<?xml version="1.0" encoding="utf-8"?>
<!-- Generator: Adobe Illustrator 16.0.0, SVG Export Plug-In . SVG Version: 6.00 Build 0)  -->
<!DOCTYPE svg PUBLIC "-//W3C//DTD SVG 1.1//EN" "http://www.w3.org/Graphics/SVG/1.1/DTD/svg11.dtd">
<svg version="1.1" id="Layer_1" xmlns="http://www.w3.org/2000/svg" xmlns:xlink="http://www.w3.org/1999/xlink" x="0px" y="0px"
	 width="42px" height="42px" viewBox="0 0 42 42" enable-background="new 0 0 42 42" xml:space="preserve">
<g>
	<path opacity="0.6" d="M10.999,16.999c0.535,0,1.043-0.09,1.537-0.222l2.908,2.908l4.242-4.241l-2.908-2.91
		c0.132-0.494,0.221-1,0.221-1.536c0-3.312-2.687-6-6-6C10.884,5,10.784,5.08,10.753,5.194c-0.029,0.11,0.027,0.23,0.127,0.285
		C12.141,6.148,12.999,7.472,12.999,9c0,2.209-1.791,4-4,4c-1.529,0-2.851-0.861-3.521-2.119c-0.054-0.103-0.172-0.156-0.284-0.128
		C5.08,10.784,5,10.883,5,11C5,14.316,7.688,16.999,10.999,16.999"/>
	<path opacity="0.6" d="M30.999,24.999c-0.538,0-1.042,0.094-1.538,0.224l-2.703-2.707l-4.246,4.241l2.707,2.71
		c-0.129,0.492-0.219,1-0.219,1.531c0,3.312,2.684,6,5.999,6c0.112,0,0.211-0.078,0.246-0.191c0.026-0.113-0.031-0.229-0.129-0.289
		C29.859,35.846,29,34.525,29,32.996c0-2.207,1.789-4,3.999-4c1.526,0,2.853,0.861,3.521,2.125c0.057,0.104,0.172,0.148,0.285,0.123
		c0.112-0.029,0.194-0.127,0.194-0.246C36.999,27.688,34.312,24.999,30.999,24.999"/>
	<path d="M29.617,16.823c0.445,0.104,0.902,0.176,1.382,0.176c0.513,0,1-0.082,1.474-0.204c2.598-0.66,4.526-2.994,4.526-5.795
		c0-0.116-0.082-0.218-0.199-0.246c-0.112-0.028-0.227,0.024-0.288,0.128C35.852,12.139,34.525,13,32.999,13
		c-0.996,0-1.896-0.376-2.593-0.976l-0.43-0.431C29.375,10.891,29,9.996,29,9c0-1.528,0.855-2.852,2.116-3.521
		c0.102-0.055,0.155-0.173,0.129-0.284C31.214,5.08,31.111,5,30.999,5c-2.983,0-5.44,2.184-5.901,5.034
		C25.043,10.351,25,10.669,25,11c0,0.592,0.109,1.15,0.27,1.689L12.688,25.271C12.147,25.113,11.588,25,10.999,25
		c-0.332,0-0.648,0.047-0.966,0.098c-2.851,0.467-5.032,2.922-5.032,5.901c0,0.117,0.08,0.219,0.194,0.246
		c0.109,0.03,0.229-0.022,0.283-0.125c0.671-1.263,1.992-2.121,3.521-2.121c1,0,1.902,0.379,2.605,0.985l0.41,0.412
		c0.606,0.701,0.985,1.604,0.985,2.602c0,1.531-0.859,2.852-2.119,3.523c-0.102,0.055-0.156,0.172-0.127,0.287
		c0.031,0.108,0.131,0.188,0.246,0.188c2.801,0,5.133-1.928,5.795-4.521c0.123-0.477,0.205-0.965,0.205-1.479
		c0-0.479-0.065-0.936-0.171-1.379L29.617,16.823z"/>
</g>
</svg>
