<?xml version="1.0" encoding="utf-8"?>
<!-- Generator: Adobe Illustrator 16.0.0, SVG Export Plug-In . SVG Version: 6.00 Build 0)  -->
<!DOCTYPE svg PUBLIC "-//W3C//DTD SVG 1.1//EN" "http://www.w3.org/Graphics/SVG/1.1/DTD/svg11.dtd">
<svg version="1.1" id="Layer_1" xmlns="http://www.w3.org/2000/svg" xmlns:xlink="http://www.w3.org/1999/xlink" x="0px" y="0px"
	 width="32px" height="32px" viewBox="0 0 32 32" enable-background="new 0 0 32 32" xml:space="preserve">
<path d="M2,10.241V29.41C2,30.84,3.14,32,4.545,32h22.908c1.405,0,2.545-1.16,2.545-2.59V10.241H2z M3.91,23.679v-5.12 M3.91,12.161
	h24.18V30.08H3.91V12.161z M15.363,30.08h-5.09 M21.727,30.08h-5.09"/>
<path opacity="0.5" d="M28.09,18.559V17.78h-5.091v-5.619h-0.772v5.619h-5.59v-5.619h-0.773v5.619h-5.59v-5.619H9.5v5.619H3.91
	v0.778H9.5v5.62H3.91v0.781H9.5v5.12h0.773v-5.12h5.59v5.12h0.773v-5.12h5.59v5.12h0.772v-5.12h5.091v-0.781h-5.091v-5.62H28.09z
	 M15.863,24.179h-5.59v-5.62h5.59V24.179z M22.227,24.179h-5.59v-5.62h5.59V24.179z"/>
<path d="M27.454,3.84H4.546C3.142,3.84,2.001,5,2.001,6.43v2.53H30V6.43C29.999,5,28.858,3.84,27.454,3.84z M9.637,8.32
	c-1.061,0-1.921-0.86-1.921-1.921s0.86-1.92,1.921-1.92c1.061,0,1.92,0.86,1.92,1.92S10.697,8.32,9.637,8.32z M22.359,8.32
	c-1.061,0-1.92-0.86-1.92-1.921s0.859-1.92,1.92-1.92s1.921,0.86,1.921,1.92S23.42,8.32,22.359,8.32z"/>
<path opacity="0.5" d="M10.591,0.794C10.591,0.355,10.164,0,9.636,0l0,0C9.109,0,8.682,0.355,8.682,0.794v5.773
	c0,0.438,0.428,0.794,0.955,0.794l0,0c0.527,0,0.955-0.355,0.955-0.794V0.794z"/>
<path opacity="0.5" d="M23.314,0.794C23.314,0.355,22.887,0,22.359,0l0,0c-0.527,0-0.955,0.355-0.955,0.794v5.773
	c0,0.438,0.428,0.794,0.955,0.794l0,0c0.527,0,0.955-0.355,0.955-0.794V0.794z"/>
<rect x="10.273" y="18.559" width="5.59" height="5.62"/>
</svg>
