<?xml version="1.0" encoding="utf-8"?>
<!-- Generator: Adobe Illustrator 16.0.0, SVG Export Plug-In . SVG Version: 6.00 Build 0)  -->
<!DOCTYPE svg PUBLIC "-//W3C//DTD SVG 1.1//EN" "http://www.w3.org/Graphics/SVG/1.1/DTD/svg11.dtd">
<svg version="1.1" id="Layer_1" xmlns="http://www.w3.org/2000/svg" xmlns:xlink="http://www.w3.org/1999/xlink" x="0px" y="0px"
	 width="42px" height="42px" viewBox="0 0 42 42" enable-background="new 0 0 42 42" xml:space="preserve">
<g id="Layer_1_1_">
</g>
<g class='cog' id="cog">
	<path fill="#010101" d="M28.357,26.762v-2.919l-3.489-1.453c-0.097-0.271-0.199-0.539-0.325-0.799l1.409-3.506l-2.065-2.064
		l-3.476,1.434c-0.265-0.127-0.537-0.236-0.815-0.335l-1.479-3.468h-2.919l-1.443,3.455c-0.292,0.104-0.571,0.211-0.847,0.344
		l-3.472-1.396l-2.064,2.064l1.415,3.436c-0.137,0.283-0.248,0.572-0.354,0.867L5,23.89v2.919l3.436,1.433
		c0.106,0.297,0.219,0.585,0.356,0.867l-1.389,3.46l2.064,2.062l3.448-1.42c0.277,0.13,0.56,0.237,0.849,0.336l1.477,3.455h2.92
		l1.445-3.473c0.276-0.104,0.55-0.21,0.812-0.336l3.501,1.4l2.063-2.062l-1.438-3.482c0.124-0.262,0.225-0.526,0.321-0.799
		L28.357,26.762z M16.657,29.704c-2.417,0-4.38-1.963-4.38-4.379c0-2.417,1.963-4.379,4.38-4.379c2.418,0,4.379,1.962,4.379,4.379
		C21.037,27.741,19.075,29.704,16.657,29.704z"/>
</g>
<g class='cog' id="cog_small" opacity="0.6">
	<path fill="#010101" d="M27.243,18.284l1.659,0.512l1.438-1.729c0.174-0.009,0.342-0.02,0.512-0.044l1.748,1.412l1.534-0.812
		l-0.207-2.229c0.119-0.129,0.229-0.264,0.333-0.402l2.231-0.238l0.51-1.657l-1.713-1.423c-0.009-0.184-0.021-0.359-0.046-0.542
		l1.396-1.729L35.827,7.87l-2.202,0.199c-0.139-0.127-0.283-0.237-0.434-0.352L32.957,5.51L31.296,5l-1.414,1.703
		c-0.187,0.01-0.372,0.021-0.555,0.051L27.602,5.36l-1.535,0.812l0.205,2.208c-0.123,0.137-0.231,0.278-0.34,0.426l-2.224,0.235
		l-0.511,1.662l1.724,1.426c0.011,0.179,0.024,0.353,0.05,0.521l-1.41,1.744l0.814,1.534l2.23-0.209
		c0.127,0.113,0.263,0.218,0.398,0.32L27.243,18.284z M27.611,11.119c0.423-1.374,1.883-2.147,3.257-1.727
		c1.375,0.423,2.147,1.88,1.726,3.255s-1.881,2.146-3.256,1.728C27.964,13.952,27.189,12.493,27.611,11.119z"/>
</g>
</svg>
