<?xml version="1.0" encoding="utf-8"?>
<!-- Generator: Adobe Illustrator 16.0.0, SVG Export Plug-In . SVG Version: 6.00 Build 0)  -->
<!DOCTYPE svg PUBLIC "-//W3C//DTD SVG 1.1//EN" "http://www.w3.org/Graphics/SVG/1.1/DTD/svg11.dtd">
<svg version="1.1" id="Layer_1" xmlns="http://www.w3.org/2000/svg" xmlns:xlink="http://www.w3.org/1999/xlink" x="0px" y="0px"
	 width="128px" height="128px" viewBox="-282.873 412.491 128 128" enable-background="new -282.873 412.491 128 128"
	 xml:space="preserve">
<path display="none" fill="none" d="M-232.607,449.889c0-11.122-9.164-20.17-20.287-20.17c-11.121,0-20.24,9.048-20.24,20.17
	c0,6.191,2.802,11.734,7.173,15.437l13.132-13.134l13.087,13.086C-235.396,461.575-232.607,456.053-232.607,449.889z"/>
<path display="none" fill="none" d="M-174.653,471.209c0-24.254-19.952-43.985-44.257-43.985c-24.3,0-44.184,19.73-44.184,43.985
	c0,13.095,5.817,24.864,14.917,32.927l6.932-6.918c-7.311-6.291-12.123-15.606-12.123-26.009c0-18.947,15.649-34.309,34.633-34.309
	c18.985,0,34.441,15.361,34.441,34.309c0,10.475-4.587,19.844-11.948,26.134l6.733,6.717
	C-180.446,495.996-174.653,484.261-174.653,471.209z"/>
<path display="none" fill="none" d="M-162.53,471.209c0-30.924-25.389-56.081-56.375-56.081c-30.989,0-56.31,25.157-56.31,56.081
	c0,16.428,7.174,31.218,18.468,41.477l6.792-6.778c-9.543-8.534-15.753-20.916-15.753-34.698c0-25.749,21.172-46.624,46.976-46.624
	c25.802,0,46.781,20.875,46.781,46.624c0,13.853-6.006,26.284-15.58,34.822l6.588,6.574
	C-169.684,502.349-162.53,487.593-162.53,471.209z"/>
<path id="emit2" opacity="0.2" fill="#26C1C5" enable-background="new    " d="M-184.336,471.209
	c0-18.947-15.453-34.309-34.438-34.309c-18.984,0-34.635,15.361-34.635,34.309c0,10.402,4.812,19.718,12.121,26.009l1.779-1.773
	c-6.878-5.812-11.285-14.516-11.285-24.235c0-17.463,14.347-31.667,31.845-31.667c17.5,0,31.918,14.204,31.918,31.667
	c0,9.679-4.388,18.349-11.227,24.161l1.977,1.973C-188.922,491.05-184.336,481.683-184.336,471.209z"/>
<path id="emit3" opacity="0.2" fill="#26C1C5" enable-background="new    " d="M-171.994,471.209
	c0-25.749-20.98-46.624-46.785-46.624c-25.802,0-46.974,20.875-46.974,46.624c0,13.782,6.211,26.164,15.755,34.698l1.776-1.772
	c-9.101-8.064-14.916-19.832-14.916-32.929c0-24.252,19.883-43.984,44.184-43.984c24.305,0,44.257,19.73,44.257,43.984
	c0,13.055-5.794,24.789-14.856,32.852l1.975,1.972C-178.001,497.492-171.994,485.06-171.994,471.209z"/>
<path id="emit4" opacity="0.2" fill="#26C1C5" enable-background="new    " d="M-275.259,471.209
	c0-30.924,25.32-56.081,56.308-56.081c30.989,0,56.378,25.157,56.378,56.081c0,16.388-7.158,31.143-18.413,41.398l1.98,1.975
	c11.763-10.734,19.133-26.184,19.133-43.373c0-32.427-26.405-58.718-58.903-58.718c-32.496,0-59.097,26.291-59.097,58.718
	c0,17.222,7.358,32.699,19.123,43.437l1.96-1.959C-268.085,502.427-275.259,487.635-275.259,471.209z"/>
<path id="base" fill="#26C1C5" d="M-197.618,469.741c0-11.714-9.517-21.211-21.255-21.211c-11.74,0-21.255,9.497-21.255,21.211
	c0,10.646,7.869,19.437,18.116,20.954v31.546c-3.655,1.292-6.278,4.762-6.278,8.852c0,5.19,4.218,9.398,9.418,9.398
	c5.199,0,9.418-4.208,9.418-9.398c0-4.09-2.625-7.56-6.278-8.852v-31.546C-205.488,489.176-197.618,480.388-197.618,469.741z"/>
</svg>
